<?xml version="1.0"?>
<svg xmlns="http://www.w3.org/2000/svg" xmlns:xlink="http://www.w3.org/1999/xlink" version="1.1" viewBox="0 0 224 224" width="24px" height="24px"><g fill="none" fill-rule="nonzero" stroke="none" stroke-width="1" stroke-linecap="butt" stroke-linejoin="miter" stroke-miterlimit="10" stroke-dasharray="" stroke-dashoffset="0" font-family="none" font-weight="none" font-size="none" text-anchor="none" style="mix-blend-mode: normal"><path d="M0,224v-224h224v224z" fill="none"/><g fill="#88d7da"><path d="M28,46.66667c-3.36594,-0.0476 -6.49676,1.72084 -8.19362,4.62815c-1.69686,2.90731 -1.69686,6.50306 0,9.41037c1.69686,2.90731 4.82768,4.67575 8.19362,4.62815h168c3.36594,0.0476 6.49676,-1.72084 8.19362,-4.62815c1.69686,-2.90731 1.69686,-6.50306 0,-9.41037c-1.69686,-2.90731 -4.82768,-4.67575 -8.19362,-4.62815zM28,102.66667c-3.36594,-0.0476 -6.49676,1.72084 -8.19362,4.62815c-1.69686,2.90731 -1.69686,6.50306 0,9.41037c1.69686,2.90731 4.82768,4.67575 8.19362,4.62815h168c3.36594,0.0476 6.49676,-1.72084 8.19362,-4.62815c1.69686,-2.90731 1.69686,-6.50306 0,-9.41037c-1.69686,-2.90731 -4.82768,-4.67575 -8.19362,-4.62815zM28,158.66667c-3.36594,-0.0476 -6.49676,1.72084 -8.19362,4.62815c-1.69686,2.90731 -1.69686,6.50306 0,9.41037c1.69686,2.90731 4.82768,4.67575 8.19362,4.62815h168c3.36594,0.0476 6.49676,-1.72084 8.19362,-4.62815c1.69686,-2.90731 1.69686,-6.50306 0,-9.41037c-1.69686,-2.90731 -4.82768,-4.67575 -8.19362,-4.62815z"/></g></g></svg>
